<mxfile host="app.diagrams.net" agent="Mozilla/5.0 (Windows NT 10.0; Win64; x64) AppleWebKit/537.36 (KHTML, like Gecko) Chrome/129.0.0.0 Safari/537.36 Edg/129.0.0.0" version="24.7.17">
  <diagram id="C5RBs43oDa-KdzZeNtuy" name="Page-1">
    <mxGraphModel dx="1426" dy="791" grid="1" gridSize="10" guides="1" tooltips="1" connect="1" arrows="1" fold="1" page="1" pageScale="1" pageWidth="1169" pageHeight="827" background="none" math="0" shadow="0">
      <root>
        <mxCell id="WIyWlLk6GJQsqaUBKTNV-0" />
        <mxCell id="WIyWlLk6GJQsqaUBKTNV-1" parent="WIyWlLk6GJQsqaUBKTNV-0" />
        <mxCell id="yjqtMbwxFYkkqO8o6HRI-0" value="" style="rhombus;whiteSpace=wrap;html=1;" vertex="1" parent="WIyWlLk6GJQsqaUBKTNV-1">
          <mxGeometry x="350" y="275" width="90" height="90" as="geometry" />
        </mxCell>
        <mxCell id="yjqtMbwxFYkkqO8o6HRI-1" value="Tanszék" style="rounded=0;whiteSpace=wrap;html=1;" vertex="1" parent="WIyWlLk6GJQsqaUBKTNV-1">
          <mxGeometry x="150" y="290" width="120" height="60" as="geometry" />
        </mxCell>
        <mxCell id="yjqtMbwxFYkkqO8o6HRI-2" value="kar" style="ellipse;whiteSpace=wrap;html=1;" vertex="1" parent="WIyWlLk6GJQsqaUBKTNV-1">
          <mxGeometry x="250" y="180" width="110" height="40" as="geometry" />
        </mxCell>
        <mxCell id="yjqtMbwxFYkkqO8o6HRI-3" value="név" style="ellipse;whiteSpace=wrap;html=1;" vertex="1" parent="WIyWlLk6GJQsqaUBKTNV-1">
          <mxGeometry x="50" y="180" width="110" height="40" as="geometry" />
        </mxCell>
        <mxCell id="yjqtMbwxFYkkqO8o6HRI-5" value="" style="endArrow=classic;html=1;rounded=0;exitX=0;exitY=0.5;exitDx=0;exitDy=0;entryX=1;entryY=0.5;entryDx=0;entryDy=0;" edge="1" parent="WIyWlLk6GJQsqaUBKTNV-1" source="yjqtMbwxFYkkqO8o6HRI-0" target="yjqtMbwxFYkkqO8o6HRI-1">
          <mxGeometry width="50" height="50" relative="1" as="geometry">
            <mxPoint x="300" y="345" as="sourcePoint" />
            <mxPoint x="350" y="295" as="targetPoint" />
          </mxGeometry>
        </mxCell>
        <mxCell id="yjqtMbwxFYkkqO8o6HRI-6" value="" style="endArrow=none;html=1;rounded=0;entryX=0.5;entryY=0;entryDx=0;entryDy=0;exitX=0.762;exitY=0.96;exitDx=0;exitDy=0;exitPerimeter=0;" edge="1" parent="WIyWlLk6GJQsqaUBKTNV-1" source="yjqtMbwxFYkkqO8o6HRI-3" target="yjqtMbwxFYkkqO8o6HRI-1">
          <mxGeometry width="50" height="50" relative="1" as="geometry">
            <mxPoint x="150" y="270" as="sourcePoint" />
            <mxPoint x="200" y="220" as="targetPoint" />
          </mxGeometry>
        </mxCell>
        <mxCell id="yjqtMbwxFYkkqO8o6HRI-7" value="" style="endArrow=none;html=1;rounded=0;entryX=0.277;entryY=1;entryDx=0;entryDy=0;entryPerimeter=0;exitX=0.5;exitY=0;exitDx=0;exitDy=0;" edge="1" parent="WIyWlLk6GJQsqaUBKTNV-1" source="yjqtMbwxFYkkqO8o6HRI-1" target="yjqtMbwxFYkkqO8o6HRI-2">
          <mxGeometry width="50" height="50" relative="1" as="geometry">
            <mxPoint x="240" y="290" as="sourcePoint" />
            <mxPoint x="290" y="240" as="targetPoint" />
          </mxGeometry>
        </mxCell>
        <mxCell id="yjqtMbwxFYkkqO8o6HRI-8" value="" style="endArrow=none;html=1;rounded=0;entryX=0.5;entryY=1;entryDx=0;entryDy=0;exitX=0.5;exitY=0.12;exitDx=0;exitDy=0;exitPerimeter=0;" edge="1" parent="WIyWlLk6GJQsqaUBKTNV-1" source="yjqtMbwxFYkkqO8o6HRI-9" target="yjqtMbwxFYkkqO8o6HRI-1">
          <mxGeometry width="50" height="50" relative="1" as="geometry">
            <mxPoint x="210" y="410" as="sourcePoint" />
            <mxPoint x="210" y="360" as="targetPoint" />
          </mxGeometry>
        </mxCell>
        <mxCell id="yjqtMbwxFYkkqO8o6HRI-9" value="kód" style="ellipse;whiteSpace=wrap;html=1;" vertex="1" parent="WIyWlLk6GJQsqaUBKTNV-1">
          <mxGeometry x="155" y="414" width="110" height="46" as="geometry" />
        </mxCell>
        <mxCell id="yjqtMbwxFYkkqO8o6HRI-12" value="" style="endArrow=classic;html=1;rounded=0;exitX=1;exitY=0.5;exitDx=0;exitDy=0;" edge="1" parent="WIyWlLk6GJQsqaUBKTNV-1" source="yjqtMbwxFYkkqO8o6HRI-0">
          <mxGeometry width="50" height="50" relative="1" as="geometry">
            <mxPoint x="450" y="345" as="sourcePoint" />
            <mxPoint x="490" y="320" as="targetPoint" />
          </mxGeometry>
        </mxCell>
        <mxCell id="yjqtMbwxFYkkqO8o6HRI-13" value="" style="endArrow=classic;html=1;rounded=0;exitX=1;exitY=0.5;exitDx=0;exitDy=0;" edge="1" parent="WIyWlLk6GJQsqaUBKTNV-1" source="yjqtMbwxFYkkqO8o6HRI-0" target="yjqtMbwxFYkkqO8o6HRI-14">
          <mxGeometry width="50" height="50" relative="1" as="geometry">
            <mxPoint x="450" y="340" as="sourcePoint" />
            <mxPoint x="500" y="290" as="targetPoint" />
          </mxGeometry>
        </mxCell>
        <mxCell id="yjqtMbwxFYkkqO8o6HRI-14" value="Oktató" style="rounded=0;whiteSpace=wrap;html=1;" vertex="1" parent="WIyWlLk6GJQsqaUBKTNV-1">
          <mxGeometry x="520" y="290" width="120" height="60" as="geometry" />
        </mxCell>
        <mxCell id="yjqtMbwxFYkkqO8o6HRI-15" value="" style="rhombus;whiteSpace=wrap;html=1;" vertex="1" parent="WIyWlLk6GJQsqaUBKTNV-1">
          <mxGeometry x="740" y="275" width="90" height="90" as="geometry" />
        </mxCell>
        <mxCell id="yjqtMbwxFYkkqO8o6HRI-16" value="" style="endArrow=classic;html=1;rounded=0;exitX=0;exitY=0.5;exitDx=0;exitDy=0;" edge="1" parent="WIyWlLk6GJQsqaUBKTNV-1" source="yjqtMbwxFYkkqO8o6HRI-15">
          <mxGeometry width="50" height="50" relative="1" as="geometry">
            <mxPoint x="670" y="340" as="sourcePoint" />
            <mxPoint x="670" y="320" as="targetPoint" />
          </mxGeometry>
        </mxCell>
        <mxCell id="yjqtMbwxFYkkqO8o6HRI-17" value="" style="endArrow=classic;html=1;rounded=0;exitX=0;exitY=0.5;exitDx=0;exitDy=0;entryX=1;entryY=0.5;entryDx=0;entryDy=0;" edge="1" parent="WIyWlLk6GJQsqaUBKTNV-1" source="yjqtMbwxFYkkqO8o6HRI-15" target="yjqtMbwxFYkkqO8o6HRI-14">
          <mxGeometry width="50" height="50" relative="1" as="geometry">
            <mxPoint x="670" y="345" as="sourcePoint" />
            <mxPoint x="720" y="295" as="targetPoint" />
          </mxGeometry>
        </mxCell>
        <mxCell id="yjqtMbwxFYkkqO8o6HRI-18" value="" style="endArrow=classic;html=1;rounded=0;exitX=1;exitY=0.5;exitDx=0;exitDy=0;" edge="1" parent="WIyWlLk6GJQsqaUBKTNV-1" source="yjqtMbwxFYkkqO8o6HRI-15">
          <mxGeometry width="50" height="50" relative="1" as="geometry">
            <mxPoint x="840" y="350" as="sourcePoint" />
            <mxPoint x="900" y="320" as="targetPoint" />
          </mxGeometry>
        </mxCell>
        <mxCell id="yjqtMbwxFYkkqO8o6HRI-19" value="" style="endArrow=classic;html=1;rounded=0;entryX=0;entryY=0.5;entryDx=0;entryDy=0;exitX=1;exitY=0.5;exitDx=0;exitDy=0;" edge="1" parent="WIyWlLk6GJQsqaUBKTNV-1" source="yjqtMbwxFYkkqO8o6HRI-15" target="yjqtMbwxFYkkqO8o6HRI-20">
          <mxGeometry width="50" height="50" relative="1" as="geometry">
            <mxPoint x="530" y="430" as="sourcePoint" />
            <mxPoint x="580" y="380" as="targetPoint" />
          </mxGeometry>
        </mxCell>
        <mxCell id="yjqtMbwxFYkkqO8o6HRI-20" value="Tantárgy" style="rounded=0;whiteSpace=wrap;html=1;" vertex="1" parent="WIyWlLk6GJQsqaUBKTNV-1">
          <mxGeometry x="930" y="290" width="120" height="60" as="geometry" />
        </mxCell>
        <mxCell id="yjqtMbwxFYkkqO8o6HRI-21" value="név" style="ellipse;whiteSpace=wrap;html=1;" vertex="1" parent="WIyWlLk6GJQsqaUBKTNV-1">
          <mxGeometry x="1050" y="180" width="110" height="40" as="geometry" />
        </mxCell>
        <mxCell id="yjqtMbwxFYkkqO8o6HRI-22" value="név" style="ellipse;whiteSpace=wrap;html=1;" vertex="1" parent="WIyWlLk6GJQsqaUBKTNV-1">
          <mxGeometry x="430" y="180" width="115" height="40" as="geometry" />
        </mxCell>
        <mxCell id="yjqtMbwxFYkkqO8o6HRI-24" value="neptunkód" style="ellipse;whiteSpace=wrap;html=1;align=center;fontStyle=4;" vertex="1" parent="WIyWlLk6GJQsqaUBKTNV-1">
          <mxGeometry x="522.5" y="414" width="115" height="46" as="geometry" />
        </mxCell>
        <mxCell id="yjqtMbwxFYkkqO8o6HRI-25" value="" style="endArrow=none;html=1;rounded=0;exitX=0.5;exitY=1;exitDx=0;exitDy=0;entryX=0.5;entryY=0.065;entryDx=0;entryDy=0;entryPerimeter=0;" edge="1" parent="WIyWlLk6GJQsqaUBKTNV-1" source="yjqtMbwxFYkkqO8o6HRI-14" target="yjqtMbwxFYkkqO8o6HRI-24">
          <mxGeometry relative="1" as="geometry">
            <mxPoint x="505" y="390" as="sourcePoint" />
            <mxPoint x="665" y="390" as="targetPoint" />
          </mxGeometry>
        </mxCell>
        <mxCell id="yjqtMbwxFYkkqO8o6HRI-26" value="" style="endArrow=none;html=1;rounded=0;entryX=0.5;entryY=1;entryDx=0;entryDy=0;exitX=0.5;exitY=0;exitDx=0;exitDy=0;" edge="1" parent="WIyWlLk6GJQsqaUBKTNV-1" source="yjqtMbwxFYkkqO8o6HRI-20" target="yjqtMbwxFYkkqO8o6HRI-33">
          <mxGeometry width="50" height="50" relative="1" as="geometry">
            <mxPoint x="870" y="280" as="sourcePoint" />
            <mxPoint x="920" y="230" as="targetPoint" />
          </mxGeometry>
        </mxCell>
        <mxCell id="yjqtMbwxFYkkqO8o6HRI-27" value="" style="endArrow=none;html=1;rounded=0;entryX=0.5;entryY=1;entryDx=0;entryDy=0;exitX=0.5;exitY=0;exitDx=0;exitDy=0;" edge="1" parent="WIyWlLk6GJQsqaUBKTNV-1" source="yjqtMbwxFYkkqO8o6HRI-20" target="yjqtMbwxFYkkqO8o6HRI-32">
          <mxGeometry width="50" height="50" relative="1" as="geometry">
            <mxPoint x="940" y="275" as="sourcePoint" />
            <mxPoint x="990" y="225" as="targetPoint" />
          </mxGeometry>
        </mxCell>
        <mxCell id="yjqtMbwxFYkkqO8o6HRI-28" value="" style="endArrow=none;html=1;rounded=0;exitX=0.5;exitY=0;exitDx=0;exitDy=0;entryX=0.5;entryY=1;entryDx=0;entryDy=0;" edge="1" parent="WIyWlLk6GJQsqaUBKTNV-1" source="yjqtMbwxFYkkqO8o6HRI-14" target="yjqtMbwxFYkkqO8o6HRI-22">
          <mxGeometry width="50" height="50" relative="1" as="geometry">
            <mxPoint x="470" y="270" as="sourcePoint" />
            <mxPoint x="520" y="220" as="targetPoint" />
          </mxGeometry>
        </mxCell>
        <mxCell id="yjqtMbwxFYkkqO8o6HRI-29" value="" style="endArrow=none;html=1;rounded=0;exitX=0.5;exitY=0;exitDx=0;exitDy=0;entryX=0.5;entryY=1;entryDx=0;entryDy=0;" edge="1" parent="WIyWlLk6GJQsqaUBKTNV-1" source="yjqtMbwxFYkkqO8o6HRI-20" target="yjqtMbwxFYkkqO8o6HRI-21">
          <mxGeometry width="50" height="50" relative="1" as="geometry">
            <mxPoint x="1010" y="275" as="sourcePoint" />
            <mxPoint x="1060" y="225" as="targetPoint" />
          </mxGeometry>
        </mxCell>
        <mxCell id="yjqtMbwxFYkkqO8o6HRI-30" value="beosztás" style="ellipse;whiteSpace=wrap;html=1;" vertex="1" parent="WIyWlLk6GJQsqaUBKTNV-1">
          <mxGeometry x="590" y="180" width="115" height="40" as="geometry" />
        </mxCell>
        <mxCell id="yjqtMbwxFYkkqO8o6HRI-31" value="" style="endArrow=none;html=1;rounded=0;exitX=0.5;exitY=0;exitDx=0;exitDy=0;entryX=0.5;entryY=1;entryDx=0;entryDy=0;" edge="1" parent="WIyWlLk6GJQsqaUBKTNV-1" source="yjqtMbwxFYkkqO8o6HRI-14" target="yjqtMbwxFYkkqO8o6HRI-30">
          <mxGeometry width="50" height="50" relative="1" as="geometry">
            <mxPoint x="590" y="280" as="sourcePoint" />
            <mxPoint x="640" y="230" as="targetPoint" />
          </mxGeometry>
        </mxCell>
        <mxCell id="yjqtMbwxFYkkqO8o6HRI-32" value="lezárás módja" style="ellipse;whiteSpace=wrap;html=1;" vertex="1" parent="WIyWlLk6GJQsqaUBKTNV-1">
          <mxGeometry x="920" y="180" width="115" height="40" as="geometry" />
        </mxCell>
        <mxCell id="yjqtMbwxFYkkqO8o6HRI-33" value="kredit" style="ellipse;whiteSpace=wrap;html=1;" vertex="1" parent="WIyWlLk6GJQsqaUBKTNV-1">
          <mxGeometry x="790" y="180" width="115" height="40" as="geometry" />
        </mxCell>
        <mxCell id="yjqtMbwxFYkkqO8o6HRI-34" value="neptunkód" style="ellipse;whiteSpace=wrap;html=1;align=center;fontStyle=4;" vertex="1" parent="WIyWlLk6GJQsqaUBKTNV-1">
          <mxGeometry x="932.5" y="414" width="115" height="46" as="geometry" />
        </mxCell>
        <mxCell id="yjqtMbwxFYkkqO8o6HRI-35" value="" style="endArrow=none;html=1;rounded=0;exitX=0.5;exitY=0;exitDx=0;exitDy=0;entryX=0.5;entryY=1;entryDx=0;entryDy=0;" edge="1" parent="WIyWlLk6GJQsqaUBKTNV-1" source="yjqtMbwxFYkkqO8o6HRI-34" target="yjqtMbwxFYkkqO8o6HRI-20">
          <mxGeometry width="50" height="50" relative="1" as="geometry">
            <mxPoint x="952.5" y="400" as="sourcePoint" />
            <mxPoint x="1002.5" y="350" as="targetPoint" />
          </mxGeometry>
        </mxCell>
      </root>
    </mxGraphModel>
  </diagram>
</mxfile>
